# xmcd CD database file
#
# Track frame offsets:
#	150
#	104571
#	121281
#	145172
#	168575
#
# Disc length: 2781 seconds
#
# Revision: 0
# Processed by: cddbd v1.5.2PL0 Copyright (c) Steve Scherf et al.
# Submitted via: CDex 1.70beta2
#
DISCID=430adb05
DTITLE=Michel Legrand - Michel Legrand Orchestra/Mulligan-Woods...
DYEAR=2008
DGENRE=Jazz
TTITLE0=Southern Routes
TTITLE1=La Passionaria
TTITLE2=Malagan Stew
TTITLE3=Iberia Nova
TTITLE4=Basquette
EXTD=YEAR: 2008
EXTT0=
EXTT1=
EXTT2=
EXTT3=
EXTT4=
PLAYORDER=
